<svg width="50" height="50" viewBox="0 0 50 50" fill="none" xmlns="http://www.w3.org/2000/svg">
<rect width="50" height="50" rx="25" fill="#E8F5E9"/>
<path d="M37.0875 14.5469C37.9313 14.5 38.6813 15.1562 38.6344 15.9531V31.7969C38.6344 32.5469 38.025 33.2031 37.2281 33.25C34.9313 33.3438 30.2438 33.8125 27.0094 35.4531C26.4938 35.6875 25.8844 35.3594 25.8844 34.7969V17.7344C25.8844 17.5 26.025 17.2656 26.2594 17.125C29.4 15.2031 34.5094 14.6875 37.0875 14.5469ZM24.0563 17.125C24.2906 17.2656 24.4313 17.5 24.4313 17.7344V34.7969C24.4313 35.3594 23.8219 35.6875 23.3063 35.4531C20.0719 33.8125 15.3844 33.3438 13.0875 33.25C12.2906 33.2031 11.6813 32.5469 11.6813 31.7969V15.9531C11.6813 15.1562 12.3844 14.5 13.2281 14.5469C15.8063 14.6875 20.9156 15.2031 24.0563 17.125Z" fill="#388E3C"/>
</svg>
