<svg width="22" height="20" viewBox="0 0 22 20" fill="none" xmlns="http://www.w3.org/2000/svg">
<path d="M22 4.8125V17.1875C22 18.3477 21.0547 19.25 19.9375 19.25H2.0625C0.902344 19.25 0 18.3477 0 17.1875V4.8125C0 3.69531 0.902344 2.75 2.0625 2.75H5.84375L6.35938 1.375C6.66016 0.558594 7.43359 0 8.29297 0H13.6641C14.5234 0 15.2969 0.558594 15.5977 1.375L16.1562 2.75H19.9375C21.0547 2.75 22 3.69531 22 4.8125ZM16.1562 11C16.1562 8.16406 13.8359 5.84375 11 5.84375C8.12109 5.84375 5.84375 8.16406 5.84375 11C5.84375 13.8789 8.12109 16.1562 11 16.1562C13.8359 16.1562 16.1562 13.8789 16.1562 11ZM14.7812 11C14.7812 13.1055 13.0625 14.7812 11 14.7812C8.89453 14.7812 7.21875 13.1055 7.21875 11C7.21875 8.9375 8.89453 7.21875 11 7.21875C13.0625 7.21875 14.7812 8.9375 14.7812 11Z" fill="#FFA000"/>
</svg>
