<svg width="50" height="50" viewBox="0 0 50 50" fill="none" xmlns="http://www.w3.org/2000/svg">
<rect width="50" height="50" rx="25" fill="#FFF8E1"/>
<path d="M37.5563 16C38.1656 16 38.6813 16.5156 38.6813 17.125V19.75C38.6813 21.4375 37.6031 23.1719 35.775 24.4844C34.275 25.5625 32.4938 26.2188 30.6188 26.4531C29.1188 28.8906 27.4313 29.875 27.4313 29.875V33.25H29.6813C31.3219 33.25 32.6813 34.2344 32.6813 35.875V36.4375C32.6813 36.7656 32.4 37 32.1188 37H18.2438C17.9156 37 17.6813 36.7656 17.6813 36.4375V35.875C17.6813 34.2344 18.9938 33.25 20.6813 33.25H22.9313V29.875C22.9313 29.875 21.1969 28.8906 19.6969 26.4531C17.8219 26.2188 16.0406 25.5625 14.5406 24.4844C12.7125 23.1719 11.6813 21.4375 11.6813 19.75V17.125C11.6813 16.5156 12.15 16 12.8063 16H17.6813V14.125C17.6813 13.5156 18.15 13 18.8063 13H31.5563C32.1656 13 32.6813 13.5156 32.6813 14.125V16H37.5563ZM16.3219 22.0469C16.8844 22.4688 17.5406 22.7969 18.2906 23.0781C17.9625 21.9062 17.7281 20.5469 17.6813 19H14.6813V19.75C14.6813 20.3125 15.15 21.25 16.3219 22.0469ZM35.6813 19.75V19H32.6344C32.5875 20.5469 32.3531 21.9062 32.025 23.0781C32.775 22.7969 33.4313 22.4688 33.9938 22.0469C34.8375 21.4844 35.6813 20.5469 35.6813 19.75Z" fill="#FFA000"/>
</svg>
