<svg width="76" height="54" viewBox="0 0 76 54" fill="none" xmlns="http://www.w3.org/2000/svg">
<path opacity="0.1" d="M37.3545 7.5527C52.8622 3.39744 69.4222 14.4893 70.3928 18.1116C71.3634 21.7338 62.5679 39.6197 47.0602 43.7749C36.8727 46.5047 26.2925 42.7882 19.8865 38.8026L12.0403 48.9122C10.955 50.2949 8.61419 49.7089 8.52914 48.0332L7.90947 34.8539L1.8868 23.2436C1.12259 21.7499 2.85679 20.072 4.48809 20.7268L16.3378 25.5589C19.8928 18.9042 27.167 10.2824 37.3545 7.5527ZM52.7832 25.7417C54.2548 25.3474 55.1966 23.8819 54.772 22.2971C54.3777 20.8256 52.7989 19.9141 51.3274 20.3084C49.8558 20.7027 48.9443 22.2815 49.3386 23.753C49.7633 25.3377 51.3117 26.136 52.7832 25.7417Z" fill="white"/>
</svg>
