<svg width="18" height="23" viewBox="0 0 18 23" fill="none" xmlns="http://www.w3.org/2000/svg">
<path d="M8.89453 0.902344C8.9375 1.07422 9.625 4.94141 9.625 6.40234C9.625 8.67969 8.42188 10.2695 6.66016 10.9141L7.21875 21.1406C7.21875 21.7422 6.74609 22.2148 6.1875 22.2148H3.4375C2.83594 22.2148 2.36328 21.7422 2.40625 21.1406L2.92188 10.9141C1.16016 10.2695 0 8.67969 0 6.40234C0 4.94141 0.644531 1.07422 0.6875 0.902344C0.816406 0 2.62109 0 2.75 0.945312V7.00391C2.79297 7.13281 3.39453 7.13281 3.4375 7.00391C3.48047 5.92969 3.73828 1.03125 3.78125 0.902344C3.91016 0 5.67188 0 5.80078 0.902344C5.84375 1.03125 6.10156 5.92969 6.14453 7.00391C6.1875 7.13281 6.78906 7.13281 6.83203 7.00391V0.945312C6.96094 0 8.76562 0 8.89453 0.902344ZM14.0508 13.1484C7.30469 7.90625 13.2773 0.214844 16.8438 0.214844C17.4023 0.214844 17.875 0.6875 17.875 1.24609V21.1836C17.875 21.7852 17.4023 22.2148 16.8438 22.2148H14.4375C13.8359 22.2148 13.3203 21.6992 13.4062 21.0977L14.0508 13.1484Z" fill="#2196F3"/>
</svg>
