<svg width="23" height="23" viewBox="0 0 23 23" fill="none" xmlns="http://www.w3.org/2000/svg">
<path d="M13.0625 8.25V9.625C13.0625 9.92578 12.8047 10.1406 12.5469 10.1406H10.1406V12.5469C10.1406 12.8477 9.88281 13.0625 9.625 13.0625H8.25C7.94922 13.0625 7.73438 12.8477 7.73438 12.5469V10.1406H5.32812C5.02734 10.1406 4.8125 9.92578 4.8125 9.625V8.25C4.8125 7.99219 5.02734 7.73438 5.32812 7.73438H7.73438V5.32812C7.73438 5.07031 7.94922 4.8125 8.25 4.8125H9.625C9.88281 4.8125 10.1406 5.07031 10.1406 5.32812V7.73438H12.5469C12.8047 7.73438 13.0625 7.99219 13.0625 8.25ZM21.6992 20.4961L20.4531 21.6992C20.0664 22.1289 19.4219 22.1289 18.9922 21.6992L14.7383 17.4453C14.5234 17.2305 14.4375 16.9727 14.4375 16.7148V15.9844C12.8906 17.1875 11 17.875 8.9375 17.875C3.99609 17.875 0 13.8789 0 8.9375C0 4.03906 3.99609 0 8.9375 0C13.8359 0 17.875 4.03906 17.875 8.9375C17.875 11.043 17.1445 12.9336 15.9844 14.4375H16.6719C16.9297 14.4375 17.1875 14.5664 17.4023 14.7383L21.6992 19.0352C22.0859 19.4648 22.0859 20.1094 21.6992 20.4961ZM14.7812 8.9375C14.7812 5.71484 12.1602 3.09375 8.9375 3.09375C5.67188 3.09375 3.09375 5.71484 3.09375 8.9375C3.09375 12.2031 5.67188 14.7812 8.9375 14.7812C12.1602 14.7812 14.7812 12.2031 14.7812 8.9375Z" fill="#4CAF50"/>
</svg>
