<svg width="19" height="14" viewBox="0 0 19 14" fill="none" xmlns="http://www.w3.org/2000/svg">
<path d="M8.78203 3.625C8.84453 3.5625 8.93828 3.53125 9.03203 3.53125C9.09453 3.53125 9.18828 3.5625 9.25078 3.625L15.032 8.34375V13.4688C15.032 13.75 14.782 13.9688 14.532 13.9688H11.0008C10.7508 13.9688 10.5008 13.75 10.5008 13.4688V10.4688C10.5008 10.2188 10.282 9.96875 10.0008 9.96875H8.00078C7.75078 9.96875 7.50078 10.2188 7.50078 10.4688V13.4688C7.50078 13.75 7.28203 13.9688 7.03203 13.9688H3.53203C3.25078 13.9688 3.03203 13.75 3.03203 13.4688V8.375L8.78203 3.625ZM17.8758 6.84375C17.9695 6.90625 18.032 7.03125 18.032 7.125C18.032 7.21875 18.0008 7.3125 17.9383 7.375L17.1258 8.34375C17.0633 8.4375 16.9695 8.46875 16.8445 8.46875C16.7508 8.46875 16.657 8.4375 16.5945 8.375L9.25078 2.34375C9.18828 2.28125 9.09453 2.25 9.03203 2.25C8.93828 2.25 8.84453 2.28125 8.78203 2.34375L1.43828 8.375C1.37578 8.4375 1.28203 8.46875 1.18828 8.46875C1.06328 8.46875 0.969532 8.4375 0.907032 8.34375L0.094532 7.375C0.063282 7.3125 0.000782013 7.21875 0.000782013 7.125C0.000782013 7.03125 0.063282 6.90625 0.157032 6.84375L8.06328 0.3125C8.31328 0.125 8.65703 0 9.03203 0C9.37578 0 9.71953 0.125 9.96953 0.3125L12.782 2.625V0.375C12.782 0.15625 12.9383 0 13.157 0H14.907C15.0945 0 15.282 0.15625 15.282 0.375V4.6875L17.8758 6.84375Z" fill="#1A1A1A"/>
</svg>
