<svg width="14" height="16" viewBox="0 0 14 16" fill="none" xmlns="http://www.w3.org/2000/svg">
<path d="M6.99961 8C4.78086 8 2.99961 6.21875 2.99961 4C2.99961 1.8125 4.78086 0 6.99961 0C9.18711 0 10.9996 1.8125 10.9996 4C10.9996 6.21875 9.18711 8 6.99961 8ZM9.78086 9C12.0934 9 13.9996 10.9062 13.9996 13.2188V14.5C13.9996 15.3438 13.3121 16 12.4996 16H1.49961C0.655859 16 -0.00039053 15.3438 -0.00039053 14.5V13.2188C-0.00039053 10.9062 1.87461 9 4.18711 9H4.71836C5.40586 9.34375 6.18711 9.5 6.99961 9.5C7.81211 9.5 8.56211 9.34375 9.24961 9H9.78086Z" fill="white" fill-opacity="0.7"/>
</svg>
