<svg width="22" height="22" viewBox="0 0 22 22" fill="none" xmlns="http://www.w3.org/2000/svg">
<path d="M4.46875 9.625C5.02734 9.625 5.5 10.0977 5.5 10.6562V20.9688C5.5 21.5703 5.02734 22 4.46875 22H1.03125C0.429688 22 0 21.5703 0 20.9688V10.6562C0 10.0977 0.429688 9.625 1.03125 9.625H4.46875ZM2.75 20.2812C3.30859 20.2812 3.78125 19.8516 3.78125 19.25C3.78125 18.6914 3.30859 18.2188 2.75 18.2188C2.14844 18.2188 1.71875 18.6914 1.71875 19.25C1.71875 19.8516 2.14844 20.2812 2.75 20.2812ZM16.5 3.52344C16.5 5.32812 15.3828 6.35938 15.0391 7.5625H19.4219C20.8398 7.5625 21.957 8.76562 21.957 10.0977C22 10.8711 21.6562 11.6875 21.1406 12.2031C21.5703 13.1914 21.4844 14.6094 20.7539 15.5977C21.0977 16.7148 20.7539 18.0898 20.0234 18.8203C20.2383 19.5938 20.1523 20.2383 19.7656 20.7539C18.9062 22 16.7148 22 14.8672 22H14.7383C12.6758 22 11 21.2695 9.625 20.668C8.9375 20.3672 8.03516 19.9805 7.34766 19.9805C7.08984 19.9375 6.875 19.7227 6.875 19.4648V10.2695C6.875 10.1406 6.91797 10.0117 7.00391 9.88281C8.72266 8.20703 9.45312 6.44531 10.8281 5.02734C11.4727 4.38281 11.6875 3.4375 11.9453 2.49219C12.1172 1.71875 12.5039 0 13.4062 0C14.4375 0 16.5 0.34375 16.5 3.52344Z" fill="#FFA000"/>
</svg>
