<svg width="9" height="12" viewBox="0 0 9 12" fill="none" xmlns="http://www.w3.org/2000/svg">
<path d="M3.69531 10.7852C0.558594 6.27344 0 5.80078 0 4.125C0 1.84766 1.82617 0 4.125 0C6.40234 0 8.25 1.84766 8.25 4.125C8.25 5.80078 7.66992 6.27344 4.5332 10.7852C4.33984 11.0859 3.88867 11.0859 3.69531 10.7852ZM4.125 5.84375C5.07031 5.84375 5.84375 5.0918 5.84375 4.125C5.84375 3.17969 5.07031 2.40625 4.125 2.40625C3.1582 2.40625 2.40625 3.17969 2.40625 4.125C2.40625 5.0918 3.1582 5.84375 4.125 5.84375Z" fill="#999999"/>
</svg>
