<svg width="40" height="40" viewBox="0 0 40 40" fill="none" xmlns="http://www.w3.org/2000/svg">
<rect width="40" height="40" rx="10" fill="#FFD54F"/>
<path d="M20 18.25C23.0859 18.25 27.5 23.0547 27.5 26.1016C27.5 27.4688 26.4453 28.25 24.6875 28.25C22.7734 28.25 21.5234 27.2734 20 27.2734C18.4375 27.2734 17.1875 28.25 15.2734 28.25C13.5156 28.25 12.5 27.4688 12.5 26.1016C12.5 23.0547 16.875 18.25 20 18.25ZM14.2188 17.7812C14.6484 19.1484 14.0234 20.4375 12.8906 20.7109C11.7578 20.9844 10.5078 20.125 10.1172 18.7578C9.6875 17.3906 10.3125 16.1016 11.4453 15.8281C12.5781 15.5547 13.8281 16.4141 14.2188 17.7812ZM17.5391 16.9609C16.3281 17.2734 14.9609 16.1797 14.4922 14.4609C14.0625 12.7812 14.6484 11.1406 15.8594 10.8281C17.0703 10.5156 18.4375 11.6094 18.9062 13.3281C19.3359 15.0078 18.75 16.6484 17.5391 16.9609ZM28.5156 15.8281C29.6484 16.1016 30.2734 17.3906 29.8438 18.7578C29.4531 20.125 28.2031 20.9844 27.0703 20.7109C25.9375 20.4375 25.3125 19.1484 25.7422 17.7812C26.1328 16.4141 27.3828 15.5547 28.5156 15.8281ZM22.4219 16.9609C21.2109 16.6484 20.625 15.0078 21.0547 13.3281C21.5234 11.6094 22.8906 10.5156 24.1016 10.8281C25.3125 11.1406 25.8984 12.7812 25.4688 14.4609C25 16.1797 23.6328 17.2734 22.4219 16.9609Z" fill="#1A1A1A"/>
</svg>
