<svg width="25" height="24" viewBox="0 0 25 24" fill="none" xmlns="http://www.w3.org/2000/svg">
<path d="M10.6875 6.14062C8.71875 6.46875 6.9375 7.35938 5.57812 8.67188L0.328125 1.21875C0 0.703125 0.375 0 0.984375 0H6.1875C6.70312 0 7.21875 0.328125 7.45312 0.75L10.6875 6.14062ZM23.4375 0C24.0469 0 24.4219 0.703125 24.0938 1.21875L18.8438 8.67188C17.4844 7.35938 15.7031 6.46875 13.7344 6.14062L16.9688 0.75C17.25 0.28125 17.7188 0 18.2344 0H23.4375ZM12.2344 7.5C16.7812 7.5 20.4844 11.2031 20.4844 15.75C20.4844 20.3438 16.7812 24 12.2344 24C7.64062 24 3.98438 20.3438 3.98438 15.75C3.98438 11.2031 7.64062 7.5 12.2344 7.5ZM16.5469 14.9062C16.875 14.5781 16.6875 14.0625 16.2656 13.9688L13.7812 13.6406L12.7031 11.3906C12.6094 11.2031 12.4219 11.1094 12.1875 11.1094C12 11.1094 11.8125 11.2031 11.7188 11.3906L10.6406 13.6406L8.15625 13.9688C7.73438 14.0625 7.54688 14.5781 7.875 14.9062L9.65625 16.6406L9.23438 19.0781C9.14062 19.5 9.60938 19.8281 10.0312 19.6406L12.2344 18.4688L14.3906 19.6406C14.8125 19.8281 15.2812 19.5 15.1875 19.0781L14.7656 16.6406L16.5469 14.9062Z" fill="#FFA000"/>
</svg>
