<svg width="42" height="42" viewBox="0 0 42 42" fill="none" xmlns="http://www.w3.org/2000/svg">
<path d="M20 30C18.875 30 18 29.125 18 28H21.9688C21.9688 29.125 21.0938 30 20 30ZM26.7188 25.3438C26.9062 25.5312 27 25.7812 27 26C26.9688 26.5312 26.5938 27 25.9688 27H14C13.375 27 13 26.5312 13 26C12.9688 25.7812 13.0625 25.5312 13.25 25.3438C13.8438 24.6875 15 23.7188 15 20.5C15 18.0938 16.6875 16.1562 19 15.6562V15C19 14.4688 19.4375 14 20 14C20.5312 14 20.9688 14.4688 20.9688 15V15.6562C23.2812 16.1562 24.9688 18.0938 24.9688 20.5C24.9688 23.7188 26.125 24.6875 26.7188 25.3438Z" fill="#666666"/>
<rect x="23" y="1" width="18" height="16" rx="8" fill="#FF5252"/>
<rect x="23" y="1" width="18" height="16" rx="8" stroke="white" stroke-width="2"/>
<path d="M29.7193 6.63C29.7527 5.96333 29.986 5.45 30.4193 5.09C30.8593 4.72333 31.436 4.54 32.1493 4.54C32.636 4.54 33.0527 4.62667 33.3993 4.8C33.746 4.96667 34.006 5.19667 34.1793 5.49C34.3593 5.77667 34.4493 6.10333 34.4493 6.47C34.4493 6.89 34.3393 7.24667 34.1193 7.54C33.906 7.82667 33.6493 8.02 33.3493 8.12V8.16C33.736 8.28 34.036 8.49333 34.2493 8.8C34.4693 9.10667 34.5793 9.5 34.5793 9.98C34.5793 10.38 34.486 10.7367 34.2993 11.05C34.1193 11.3633 33.8493 11.61 33.4893 11.79C33.136 11.9633 32.7093 12.05 32.2093 12.05C31.456 12.05 30.8427 11.86 30.3693 11.48C29.896 11.1 29.646 10.54 29.6193 9.8H30.9793C30.9927 10.1267 31.1027 10.39 31.3093 10.59C31.5227 10.7833 31.8127 10.88 32.1793 10.88C32.5193 10.88 32.7793 10.7867 32.9593 10.6C33.146 10.4067 33.2393 10.16 33.2393 9.86C33.2393 9.46 33.1127 9.17333 32.8593 9C32.606 8.82667 32.2127 8.74 31.6793 8.74H31.3893V7.59H31.6793C32.626 7.59 33.0993 7.27333 33.0993 6.64C33.0993 6.35333 33.0127 6.13 32.8393 5.97C32.6727 5.81 32.4293 5.73 32.1093 5.73C31.796 5.73 31.5527 5.81667 31.3793 5.99C31.2127 6.15667 31.116 6.37 31.0893 6.63H29.7193Z" fill="white"/>
</svg>
