<svg width="18" height="24" viewBox="0 0 18 24" fill="none" xmlns="http://www.w3.org/2000/svg">
<path d="M10.5 6.375C10.5 7.03125 10.9688 7.5 11.625 7.5H18V22.875C18 23.5312 17.4844 24 16.875 24H1.125C0.46875 24 0 23.5312 0 22.875V1.125C0 0.515625 0.46875 0 1.125 0H10.5V6.375ZM3 3.375V4.125C3 4.35938 3.14062 4.5 3.375 4.5H7.125C7.3125 4.5 7.5 4.35938 7.5 4.125V3.375C7.5 3.1875 7.3125 3 7.125 3H3.375C3.14062 3 3 3.1875 3 3.375ZM3 6.375V7.125C3 7.35938 3.14062 7.5 3.375 7.5H7.125C7.3125 7.5 7.5 7.35938 7.5 7.125V6.375C7.5 6.1875 7.3125 6 7.125 6H3.375C3.14062 6 3 6.1875 3 6.375ZM12 18C11.8125 18 11.625 17.9062 11.5312 17.7188C10.9688 16.5938 9.375 16.3125 8.4375 17.0625L7.78125 15.0938C7.64062 14.625 7.21875 14.3438 6.75 14.3438C6.23438 14.3438 5.8125 14.625 5.67188 15.0938L4.82812 17.6719C4.73438 17.8594 4.54688 18 4.3125 18H3.75C3.32812 18 3 18.375 3 18.75C3 19.1719 3.32812 19.5 3.75 19.5H4.3125C5.20312 19.5 5.95312 18.9844 6.23438 18.1406L6.75 16.6406L7.5 19.0312C7.59375 19.3125 7.875 19.5 8.15625 19.5C8.20312 19.5 8.20312 19.5 8.25 19.5C8.25 19.5 8.20312 19.5469 8.25 19.5469C8.53125 19.5469 8.76562 19.3594 8.90625 19.125L9.23438 18.375C9.375 18.1406 9.60938 18.0938 9.75 18.0938C9.84375 18.0938 10.0781 18.1406 10.2188 18.4219C10.5469 19.0781 11.25 19.5 12 19.5H14.25C14.625 19.5 15 19.1719 15 18.75C15 18.375 14.625 18 14.25 18H12ZM17.6719 4.92188C17.8594 5.15625 18 5.4375 18 5.71875V6H12V0H12.2812C12.5625 0 12.8438 0.140625 13.0781 0.328125L17.6719 4.92188Z" fill="#D32F2F"/>
</svg>
