<svg width="14" height="14" viewBox="0 0 14 14" fill="none" xmlns="http://www.w3.org/2000/svg">
<path d="M12.4996 0C13.3121 0 13.9996 0.6875 13.9996 1.5V12.5C13.9996 13.3438 13.3121 14 12.4996 14H1.49961C0.655859 14 -0.00039053 13.3438 -0.00039053 12.5V1.5C-0.00039053 0.6875 0.655859 0 1.49961 0H12.4996ZM11.4996 7.875V6.125C11.4996 5.9375 11.3121 5.75 11.1246 5.75H8.24961V2.875C8.24961 2.6875 8.06211 2.5 7.87461 2.5H6.12461C5.90586 2.5 5.74961 2.6875 5.74961 2.875V5.75H2.87461C2.65586 5.75 2.49961 5.9375 2.49961 6.125V7.875C2.49961 8.09375 2.65586 8.25 2.87461 8.25H5.74961V11.125C5.74961 11.3438 5.90586 11.5 6.12461 11.5H7.87461C8.06211 11.5 8.24961 11.3438 8.24961 11.125V8.25H11.1246C11.3121 8.25 11.4996 8.09375 11.4996 7.875Z" fill="white" fill-opacity="0.7"/>
</svg>
