<svg width="15" height="16" viewBox="0 0 15 16" fill="none" xmlns="http://www.w3.org/2000/svg">
<path d="M14.6879 9.6875C14.8441 9.78125 14.9066 9.96875 14.8754 10.125C14.5004 11.25 13.9379 12.25 13.1566 13.0938C13.0316 13.2188 12.8441 13.25 12.6879 13.1562L11.3441 12.4062C10.7816 12.875 10.1566 13.25 9.46914 13.5V15.0312C9.46914 15.1875 9.34414 15.3438 9.15664 15.4062C8.06289 15.625 6.90664 15.6562 5.75039 15.4062C5.59414 15.3438 5.46914 15.1875 5.46914 15.0312V13.5C4.75039 13.25 4.12539 12.875 3.56289 12.4062L2.21914 13.1562C2.06289 13.25 1.87539 13.2188 1.75039 13.0938C1.00039 12.25 0.406641 11.25 0.062891 10.125C0.000391006 9.96875 0.062891 9.78125 0.219141 9.6875L1.56289 8.9375C1.43789 8.1875 1.43789 7.46875 1.56289 6.71875L0.219141 5.96875C0.062891 5.875 0.000391006 5.6875 0.062891 5.53125C0.406641 4.40625 1.00039 3.40625 1.75039 2.5625C1.87539 2.4375 2.06289 2.40625 2.21914 2.5L3.56289 3.28125C4.12539 2.78125 4.75039 2.40625 5.46914 2.15625V0.625C5.46914 0.46875 5.56289 0.3125 5.75039 0.28125C6.84414 0.03125 8.00039 0 9.15664 0.28125C9.34414 0.3125 9.46914 0.46875 9.46914 0.625V2.15625C10.1566 2.40625 10.7816 2.78125 11.3441 3.25L12.6879 2.5C12.8441 2.40625 13.0316 2.4375 13.1566 2.5625C13.9066 3.40625 14.5004 4.40625 14.8441 5.53125C14.9066 5.6875 14.8441 5.875 14.6879 5.96875L13.3441 6.71875C13.5004 7.46875 13.5004 8.1875 13.3441 8.9375L14.6879 9.6875ZM7.46914 10.3125C8.84414 10.3125 9.96914 9.21875 9.96914 7.8125C9.96914 6.4375 8.84414 5.3125 7.46914 5.3125C6.06289 5.3125 4.96914 6.4375 4.96914 7.8125C4.96914 9.21875 6.06289 10.3125 7.46914 10.3125Z" fill="white" fill-opacity="0.7"/>
</svg>
