<svg width="50" height="50" viewBox="0 0 50 50" fill="none" xmlns="http://www.w3.org/2000/svg">
<rect width="50" height="50" rx="25" fill="#FFEBEE"/>
<path d="M36.7969 25C36.7969 31.4219 31.5469 36.625 25.1719 36.625C18.75 36.625 13.5469 31.4219 13.5469 25C13.5469 18.625 18.75 13.375 25.1719 13.375C31.5469 13.375 36.7969 18.625 36.7969 25ZM25.1719 27.3438C23.9531 27.3438 23.0156 28.3281 23.0156 29.5C23.0156 30.7188 23.9531 31.6562 25.1719 31.6562C26.3438 31.6562 27.3281 30.7188 27.3281 29.5C27.3281 28.3281 26.3438 27.3438 25.1719 27.3438ZM23.1094 19.6094L23.4375 25.9844C23.4844 26.3125 23.7188 26.5 24 26.5H26.2969C26.5781 26.5 26.8125 26.3125 26.8594 25.9844L27.1875 19.6094C27.2344 19.2812 26.9531 19 26.625 19H23.6719C23.3438 19 23.0625 19.2812 23.1094 19.6094Z" fill="#D32F2F"/>
</svg>
