<svg width="22" height="19" viewBox="0 0 22 19" fill="none" xmlns="http://www.w3.org/2000/svg">
<path d="M20.4258 15.7852C21.0586 16.9102 20.25 18.2812 18.9492 18.2812H2.10938C0.808594 18.2812 0 16.875 0.632812 15.7852L9.07031 1.125C9.70312 0 11.3555 0.0351562 11.9883 1.125L20.4258 15.7852ZM10.5469 12.7266C9.63281 12.7266 8.92969 13.4648 8.92969 14.3438C8.92969 15.2578 9.63281 15.9609 10.5469 15.9609C11.4258 15.9609 12.1641 15.2578 12.1641 14.3438C12.1641 13.4648 11.4258 12.7266 10.5469 12.7266ZM9 6.92578L9.24609 11.707C9.28125 11.9531 9.45703 12.0938 9.66797 12.0938H11.3906C11.6016 12.0938 11.7773 11.9531 11.8125 11.707L12.0586 6.92578C12.0938 6.67969 11.8828 6.46875 11.6367 6.46875H9.42188C9.17578 6.46875 8.96484 6.67969 9 6.92578Z" fill="#C62828"/>
</svg>
